<?xml version="1.0" encoding="utf-8"?>
<!-- Generator: Adobe Illustrator 24.1.0, SVG Export Plug-In . SVG Version: 6.00 Build 0)  -->
<svg version="1.1" id="Layer_1" xmlns="http://www.w3.org/2000/svg" xmlns:xlink="http://www.w3.org/1999/xlink" x="0px" y="0px"
	 viewBox="0 0 100 100" style="enable-background:new 0 0 100 100;" xml:space="preserve">
<g transform="translate(0,-952.36218)">
	<path d="M49.73,956.12c-0.02,0.01-0.04,0.02-0.06,0.03c-0.62,0.04-1.24,0.17-1.81,0.41c-0.21,0.07-0.42,0.17-0.62,0.28
		l-35.19,20.34c-0.21,0.12-0.4,0.29-0.59,0.44c-0.13,0.1-0.25,0.2-0.38,0.31c-0.12,0.11-0.24,0.22-0.34,0.34
		c-0.08,0.09-0.14,0.19-0.22,0.28c-0.04,0.05-0.09,0.1-0.12,0.16c-0.27,0.36-0.51,0.71-0.69,1.12c-0.02,0.05-0.03,0.1-0.03,0.16
		c0,0.01,0,0.02,0,0.03c-0.01,0.01-0.02,0.02-0.03,0.03c-0.24,0.63-0.37,1.29-0.38,1.97v40.66c0,1.97,1.08,3.86,2.78,4.84
		l35.19,20.34c1.7,0.98,3.86,0.98,5.56,0l35.16-20.34c1.7-0.98,2.78-2.88,2.78-4.84v-40.66c0-0.67-0.14-1.32-0.38-1.94
		c0-0.01,0-0.02,0-0.03c0-0.01,0-0.02,0-0.03c-0.02-0.04-0.04-0.09-0.06-0.12c0-0.01,0-0.02,0-0.03c0-0.01,0-0.02,0-0.03
		c-0.18-0.43-0.43-0.82-0.72-1.19c-0.08-0.11-0.16-0.21-0.25-0.31c-0.07-0.08-0.14-0.17-0.22-0.25c-0.06-0.06-0.13-0.1-0.19-0.16
		c-0.12-0.11-0.24-0.21-0.38-0.31c-0.19-0.15-0.38-0.31-0.59-0.44L52.8,956.84c-0.19-0.11-0.39-0.17-0.59-0.25
		c-0.74-0.31-1.54-0.49-2.34-0.47c-0.02,0-0.04,0-0.06,0C49.78,956.12,49.76,956.12,49.73,956.12L49.73,956.12z M49.92,957.62
		c0.74-0.02,1.49,0.16,2.12,0.53l35.16,20.34c0.56,0.33,0.93,0.89,1.28,1.44l-36.25,20.94c-1.33,0.77-3.13,0.77-4.47,0l-36.25-20.94
		c0.35-0.55,0.72-1.11,1.28-1.44l35.19-20.34C48.57,957.81,49.25,957.63,49.92,957.62L49.92,957.62z M49.98,974.12
		c-1.93,0-3.67,0.43-5,1.22c-1.33,0.79-2.25,1.99-2.25,3.41c0,1.42,0.92,2.61,2.25,3.41c1.33,0.79,3.07,1.22,5,1.22
		c1.93,0,3.7-0.43,5.03-1.22c1.33-0.79,2.28-1.99,2.28-3.41c0-1.42-0.95-2.61-2.28-3.41C53.69,974.55,51.91,974.12,49.98,974.12z
		 M49.98,975.59c1.68,0,3.21,0.41,4.25,1.03c1.04,0.62,1.53,1.39,1.53,2.12c0,0.74-0.49,1.51-1.53,2.12
		c-1.04,0.62-2.57,1.03-4.25,1.03c-1.68,0-3.18-0.41-4.22-1.03c-1.04-0.62-1.56-1.39-1.56-2.12c0-0.74,0.52-1.51,1.56-2.12
		C46.8,976,48.3,975.59,49.98,975.59z M10.86,981.28l36.16,20.91c0.69,0.4,1.47,0.65,2.25,0.75v43.78c0,0.11,0.02,0.21,0.06,0.31
		c-0.47-0.08-0.93-0.23-1.34-0.47l-35.19-20.34c-1.21-0.7-2.03-2.13-2.03-3.53v-40.66C10.77,981.77,10.81,981.53,10.86,981.28
		L10.86,981.28z M89.14,981.28c0.05,0.26,0.09,0.49,0.09,0.75v40.66c0,1.4-0.82,2.83-2.03,3.53l-35.16,20.34
		c-0.41,0.24-0.87,0.39-1.34,0.47c0.04-0.1,0.06-0.21,0.06-0.31v-43.78c0.77-0.1,1.53-0.35,2.22-0.75L89.14,981.28L89.14,981.28z
		 M81.14,992.31c-0.7,0.07-1.42,0.31-2.09,0.69c-1.35,0.75-2.63,2.05-3.59,3.72c-0.96,1.67-1.43,3.42-1.41,4.97
		c0.02,1.54,0.59,2.95,1.81,3.66c1.23,0.71,2.71,0.5,4.06-0.25c1.35-0.75,2.63-2.05,3.59-3.72c0.96-1.67,1.43-3.42,1.41-4.97
		s-0.55-2.98-1.78-3.69C82.53,992.36,81.84,992.24,81.14,992.31L81.14,992.31z M81.23,993.81c0.44-0.05,0.84,0.03,1.16,0.22
		c0.64,0.37,1.01,1.2,1.03,2.41c0.02,1.21-0.38,2.73-1.22,4.19c-0.84,1.46-1.94,2.54-3,3.12c-1.06,0.59-1.96,0.68-2.59,0.31
		c-0.64-0.37-1.05-1.2-1.06-2.41c-0.02-1.21,0.38-2.73,1.22-4.19c0.84-1.46,1.98-2.57,3.03-3.16
		C80.32,994.01,80.8,993.85,81.23,993.81L81.23,993.81z M20.42,995.87c-0.52,0.02-1.01,0.17-1.47,0.44
		c-1.23,0.71-1.79,2.14-1.81,3.69s0.44,3.27,1.41,4.94c0.96,1.67,2.24,2.97,3.59,3.72c1.35,0.75,2.87,0.99,4.09,0.28
		c1.23-0.71,1.79-2.14,1.81-3.69s-0.51-3.3-1.47-4.97c-0.96-1.67-2.18-2.93-3.53-3.69C22.2,996.12,21.28,995.83,20.42,995.87z
		 M20.83,997.37c0.44,0.05,0.94,0.21,1.47,0.5c1.06,0.59,2.16,1.7,3,3.16c0.84,1.46,1.27,3.01,1.25,4.22
		c-0.02,1.21-0.42,2.01-1.06,2.38s-1.54,0.34-2.59-0.25s-2.19-1.73-3.03-3.19c-0.84-1.46-1.24-2.98-1.22-4.19
		c0.02-1.21,0.42-2.04,1.06-2.41C20.02,997.4,20.39,997.32,20.83,997.37z M72.86,1007.56c-0.86-0.04-1.78,0.22-2.62,0.69
		c-1.35,0.75-2.63,2.05-3.59,3.72c-0.96,1.67-1.43,3.42-1.41,4.97s0.59,2.98,1.81,3.69s2.71,0.47,4.06-0.28
		c1.35-0.75,2.63-2.05,3.59-3.72c0.96-1.67,1.46-3.42,1.44-4.97s-0.59-2.95-1.81-3.66C73.87,1007.73,73.37,1007.58,72.86,1007.56z
		 M72.42,1009.06c0.44-0.05,0.84,0.03,1.16,0.22c0.64,0.37,1.01,1.2,1.03,2.41c0.02,1.21-0.38,2.73-1.22,4.19
		c-0.84,1.46-1.98,2.57-3.03,3.16c-1.06,0.59-1.92,0.65-2.56,0.28c-0.64-0.37-1.05-1.17-1.06-2.38c-0.02-1.21,0.41-2.76,1.25-4.22
		c0.84-1.46,1.94-2.54,3-3.12C71.51,1009.29,71.99,1009.1,72.42,1009.06L72.42,1009.06z M33.92,1019.24
		c-0.52,0.02-1.01,0.17-1.47,0.44c-1.23,0.71-1.79,2.14-1.81,3.69c-0.02,1.54,0.47,3.27,1.44,4.94c0.96,1.67,2.18,2.97,3.53,3.72
		c1.35,0.75,2.9,0.96,4.12,0.25c1.23-0.71,1.76-2.11,1.78-3.66c0.02-1.54-0.44-3.27-1.41-4.94c-0.96-1.67-2.21-2.97-3.56-3.72
		C35.7,1019.49,34.78,1019.21,33.92,1019.24L33.92,1019.24z M34.33,1020.74c0.43,0.04,0.94,0.21,1.47,0.5
		c1.06,0.59,2.19,1.73,3.03,3.19c0.84,1.46,1.24,2.98,1.22,4.19c-0.02,1.21-0.42,2.01-1.06,2.38c-0.64,0.37-1.57,0.31-2.62-0.28
		c-1.06-0.59-2.16-1.67-3-3.12c-0.84-1.46-1.27-3.01-1.25-4.22c0.02-1.21,0.46-2.01,1.09-2.38
		C33.52,1020.81,33.9,1020.71,34.33,1020.74L34.33,1020.74z M63.52,1022.84c-0.7,0.07-1.42,0.31-2.09,0.69
		c-1.35,0.75-2.63,2.05-3.59,3.72c-0.96,1.67-1.43,3.42-1.41,4.97c0.02,1.54,0.59,2.95,1.81,3.66c1.23,0.71,2.71,0.5,4.06-0.25
		c1.35-0.75,2.63-2.05,3.59-3.72c0.96-1.67,1.43-3.42,1.41-4.97s-0.55-2.98-1.78-3.69C64.9,1022.89,64.22,1022.77,63.52,1022.84
		L63.52,1022.84z M63.61,1024.34c0.44-0.05,0.84,0.04,1.16,0.22c0.64,0.37,1.01,1.2,1.03,2.41c0.02,1.21-0.38,2.73-1.22,4.19
		c-0.84,1.46-1.94,2.54-3,3.12c-1.06,0.59-1.96,0.68-2.59,0.31c-0.64-0.37-1.05-1.2-1.06-2.41c-0.02-1.21,0.38-2.73,1.22-4.19
		c0.84-1.46,1.98-2.54,3.03-3.12C62.7,1024.57,63.17,1024.38,63.61,1024.34L63.61,1024.34z"/>
</g>
</svg>
